<?xml version="1.0" encoding="UTF-8"?>
<svg width="171px" height="27px" viewBox="0 0 171 27" version="1.1" xmlns="http://www.w3.org/2000/svg" xmlns:xlink="http://www.w3.org/1999/xlink">
    <!-- Generator: sketchtool 58 (101010) - https://sketch.com -->
    <title>6473FF73-3822-4F8B-8F73-C616D5CF39CF</title>
    <desc>Created with sketchtool.</desc>
    <g id="Page-1" stroke="none" stroke-width="1" fill="none" fill-rule="evenodd">
        <g id="Viewers---Home-page_step3_2-Copy" transform="translate(-367.000000, -241.000000)" fill="#000000" fill-rule="nonzero">
            <g id="Group-33" transform="translate(321.000000, 201.000000)">
                <g id="logo" transform="translate(46.000000, 40.000000)">
                    <g id="Group" transform="translate(31.200000, 8.400000)">
                        <path d="M6.07329843,11.8530612 C7.09361257,11.8530612 7.99246073,11.6816327 8.79413613,11.3632653 C9.59581152,11.044898 10.3003141,10.6285714 10.8833508,10.1387755 L10.8833508,5.06938776 L5.7817801,5.06938776 L5.7817801,7.34693878 L7.96816754,7.34693878 L7.96816754,8.71836735 C7.7495288,8.86530612 7.48230366,8.9877551 7.19078534,9.06122449 C6.89926702,9.13469388 6.5591623,9.18367347 6.1947644,9.18367347 C5.29591623,9.15918367 4.56712042,8.88979592 4.03267016,8.30204082 C3.4739267,7.73877551 3.20670157,7.00408163 3.18240838,6.07346939 L3.18240838,6.04897959 C3.20670157,5.16734694 3.4739267,4.45714286 4.00837696,3.86938776 C4.54282723,3.30612245 5.19874346,2.9877551 6.02471204,2.9877551 C6.5591623,2.9877551 7.04502618,3.08571429 7.48230366,3.25714286 C7.91958115,3.45306122 8.33256545,3.69795918 8.69696335,4.04081633 L10.5189529,1.86122449 C9.93591623,1.34693878 9.28,0.955102041 8.55120419,0.66122449 C7.82240838,0.367346939 6.9721466,0.220408163 6.00041885,0.220408163 C4.83434555,0.220408163 3.81403141,0.489795918 2.91518325,1.00408163 C2.01633508,1.51836735 1.31183246,2.20408163 0.801675393,3.08571429 C0.291518325,3.96734694 0.0242931937,4.94693878 0.0242931937,6.04897959 L0.0242931937,6.07346939 C0.0242931937,7.2244898 0.291518325,8.20408163 0.825968586,9.08571429 C1.33612565,9.94285714 2.06492147,10.6285714 2.96376963,11.1183673 C3.8626178,11.6081633 4.90722513,11.8285714 6.07329843,11.8530612 Z" id="Path"></path>
                        <path d="M23.321466,9.03673469 C22.4712042,9.0122449 21.7909948,8.71836735 21.2808377,8.13061224 C20.7706806,7.54285714 20.5034555,6.85714286 20.5034555,6.0244898 L20.5034555,6 C20.5277487,5.16734694 20.7706806,4.45714286 21.2808377,3.89387755 C21.7909948,3.33061224 22.4712042,3.03673469 23.321466,3.0122449 C24.1717277,3.03673469 24.8762304,3.33061224 25.3863874,3.91836735 C25.8965445,4.50612245 26.1637696,5.21632653 26.1880628,6.0244898 L26.1880628,6.04897959 C26.1880628,6.88163265 25.9208377,7.56734694 25.4106806,8.15510204 C24.8762304,8.71836735 24.1960209,9.0122449 23.321466,9.03673469 Z M23.2971728,11.8530612 C24.4389529,11.8530612 25.4835602,11.5836735 26.3824084,11.0693878 C27.2812565,10.555102 27.9857592,9.84489796 28.5202094,8.9877551 C29.0303665,8.10612245 29.2975916,7.12653061 29.3218848,6.04897959 L29.3218848,6.0244898 C29.3218848,4.94693878 29.0546597,3.96734694 28.5445026,3.08571429 C28.0343455,2.20408163 27.3298429,1.51836735 26.4309948,1.00408163 C25.5321466,0.489795918 24.5118325,0.220408163 23.3700524,0.220408163 C22.2039791,0.244897959 21.1836649,0.489795918 20.2848168,1.00408163 C19.3859686,1.51836735 18.681466,2.22857143 18.1470157,3.08571429 C17.6368586,3.96734694 17.3696335,4.94693878 17.3453403,6.0244898 L17.3453403,6.04897959 C17.3453403,7.12653061 17.6125654,8.10612245 18.1227225,8.9877551 C18.6328796,9.86938776 19.3373822,10.555102 20.2362304,11.0693878 C21.1350785,11.5591837 22.1553927,11.8285714 23.2971728,11.8530612 Z" id="Shape"></path>
                        <polygon id="Path" points="35.0307853 11.6326531 43.4848168 11.6326531 43.4848168 8.88979592 38.0917277 8.88979592 38.0917277 0.416326531 35.0307853 0.416326531"></polygon>
                        <polygon id="Path" points="50.165445 11.6326531 53.2506806 11.6326531 53.2506806 7.61632653 58.4980105 7.61632653 58.4980105 5.04489796 53.2506806 5.04489796 53.2506806 3.13469388 59.0567539 3.13469388 59.0567539 0.416326531 50.165445 0.416326531"></polygon>
                        <path d="M67.6565445,6 L67.6565445,3.03673469 L69.1141361,3.03673469 C69.6728796,3.03673469 70.1101571,3.15918367 70.4259686,3.40408163 C70.7417801,3.64897959 70.8875393,4.01632653 70.8875393,4.50612245 L70.8875393,4.53061224 C70.8875393,4.97142857 70.7174869,5.31428571 70.4259686,5.58367347 C70.1101571,5.85306122 69.6971728,5.9755102 69.1384293,5.9755102 L67.6565445,5.9755102 L67.6565445,6 Z M64.5956021,11.6326531 L67.6808377,11.6326531 L67.6808377,8.4244898 L69.2113089,8.4244898 C70.6203141,8.4244898 71.7620942,8.08163265 72.6366492,7.39591837 C73.5112042,6.71020408 73.9727749,5.70612245 73.9970681,4.38367347 L73.9970681,4.35918367 C73.9727749,3.11020408 73.5597906,2.15510204 72.733822,1.46938776 C71.9078534,0.783673469 70.7903665,0.440816327 69.3813613,0.440816327 L64.6198953,0.440816327 L64.6198953,11.6326531 L64.5956021,11.6326531 Z" id="Shape"></path>
                        <path d="M86.0707853,9.03673469 C85.2205236,9.0122449 84.5403141,8.71836735 84.0058639,8.13061224 C83.4957068,7.54285714 83.2284817,6.85714286 83.2284817,6.0244898 L83.2284817,6 C83.2284817,5.16734694 83.4957068,4.45714286 84.0058639,3.89387755 C84.5160209,3.33061224 85.1962304,3.03673469 86.0464921,3.0122449 C86.8967539,3.03673469 87.6012565,3.33061224 88.1114136,3.91836735 C88.6215707,4.50612245 88.8887958,5.21632653 88.913089,6.0244898 L88.913089,6.04897959 C88.913089,6.88163265 88.6458639,7.56734694 88.1357068,8.15510204 C87.6255497,8.71836735 86.9210471,9.0122449 86.0707853,9.03673469 Z M86.0464921,11.8530612 C87.2125654,11.8530612 88.2328796,11.5836735 89.1317277,11.0693878 C90.0305759,10.555102 90.7350785,9.84489796 91.2695288,8.9877551 C91.7796859,8.10612245 92.046911,7.12653061 92.0712042,6.04897959 L92.0712042,6.0244898 C92.0712042,4.94693878 91.8039791,3.96734694 91.293822,3.08571429 C90.7836649,2.20408163 90.0791623,1.51836735 89.1803141,1.00408163 C88.281466,0.489795918 87.2611518,0.220408163 86.1193717,0.220408163 C84.9532984,0.244897959 83.9329843,0.489795918 83.0341361,1.00408163 C82.135288,1.51836735 81.4307853,2.22857143 80.8963351,3.08571429 C80.386178,3.96734694 80.1189529,4.94693878 80.0946597,6.0244898 L80.0946597,6.04897959 C80.0946597,7.12653061 80.3618848,8.10612245 80.8720419,8.9877551 C81.382199,9.86938776 82.0867016,10.555102 82.9855497,11.0693878 C83.8601047,11.5591837 84.8804188,11.8285714 86.0464921,11.8530612 Z" id="Shape"></path>
                        <path d="M102.833089,11.8040816 C104.193508,11.8040816 105.286702,11.4612245 106.088377,10.8489796 C106.890052,10.2122449 107.303037,9.33061224 107.32733,8.15510204 L107.32733,8.13061224 C107.303037,7.10204082 106.938639,6.34285714 106.209843,5.80408163 C105.481047,5.28979592 104.460733,4.89795918 103.173194,4.62857143 C102.420105,4.45714286 101.909948,4.31020408 101.642723,4.13877551 C101.375497,3.99183673 101.254031,3.77142857 101.254031,3.52653061 L101.254031,3.50204082 C101.254031,3.30612245 101.351204,3.13469388 101.521257,2.9877551 C101.715602,2.86530612 101.982827,2.79183673 102.347225,2.76734694 C102.833089,2.76734694 103.367539,2.86530612 103.877696,3.03673469 C104.412147,3.23265306 104.922304,3.50204082 105.456754,3.86938776 L106.987225,1.68979592 C106.379895,1.2 105.699686,0.832653061 104.946597,0.587755102 C104.193508,0.342857143 103.343246,0.220408163 102.395812,0.220408163 C101.059686,0.244897959 99.9907853,0.587755102 99.2376963,1.2244898 C98.4846073,1.88571429 98.0959162,2.74285714 98.0959162,3.79591837 L98.0959162,3.82040816 C98.0959162,4.57959184 98.2902618,5.19183673 98.6546597,5.63265306 C99.0190576,6.07346939 99.5049215,6.44081633 100.136545,6.68571429 C100.768168,6.95510204 101.47267,7.15102041 102.274346,7.32244898 C103.003141,7.49387755 103.513298,7.66530612 103.780524,7.8122449 C104.047749,7.98367347 104.169215,8.15510204 104.144921,8.4 L104.144921,8.4244898 C104.144921,8.66938776 104.047749,8.86530612 103.82911,8.9877551 C103.610471,9.11020408 103.29466,9.18367347 102.881675,9.18367347 C102.250052,9.18367347 101.618429,9.06122449 101.011099,8.84081633 C100.40377,8.62040816 99.820733,8.27755102 99.2862827,7.83673469 L97.561466,9.89387755 C98.2416754,10.5061224 99.0433508,10.9714286 99.942199,11.2897959 C100.913927,11.6571429 101.861361,11.8040816 102.833089,11.8040816 Z" id="Path"></path>
                        <polygon id="Path" points="113.619267 11.6326531 122.632042 11.6326531 122.632042 8.9877551 116.680209 8.9877551 116.680209 7.2 122.000419 7.2 122.000419 4.75102041 116.680209 4.75102041 116.680209 3.06122449 122.559162 3.06122449 122.559162 0.416326531 113.619267 0.416326531"></polygon>
                        <path d="M131.839162,5.80408163 L131.839162,3.11020408 L133.855497,3.11020408 C134.365654,3.11020408 134.778639,3.23265306 135.070157,3.45306122 C135.361675,3.67346939 135.507435,4.01632653 135.507435,4.45714286 L135.507435,4.48163265 C135.507435,4.89795918 135.361675,5.21632653 135.070157,5.46122449 C134.778639,5.70612245 134.389948,5.82857143 133.855497,5.82857143 L131.839162,5.82857143 L131.839162,5.80408163 Z M128.77822,11.6326531 L131.863455,11.6326531 L131.863455,8.22857143 L133.175288,8.22857143 L133.199581,8.22857143 L135.434555,11.6081633 L138.981361,11.6081633 L136.333403,7.71428571 C137.037906,7.42040816 137.572356,6.97959184 137.98534,6.41632653 C138.398325,5.85306122 138.59267,5.14285714 138.616963,4.28571429 L138.616963,4.26122449 C138.616963,3.15918367 138.276859,2.30204082 137.645236,1.66530612 C137.280838,1.27346939 136.794974,0.979591837 136.187644,0.759183673 C135.580314,0.53877551 134.875812,0.440816327 134.02555,0.440816327 L128.77822,0.440816327 L128.77822,11.6326531 L128.77822,11.6326531 Z" id="Shape"></path>
                    </g>
                    <path d="M16.0996885,0 C14.2292835,0.0487985213 12.6666667,0.707578558 11.435514,2.00073937 C10.1806854,3.29390018 9.54143302,4.85545287 9.47040498,6.66099815 L9.47040498,12.1264325 C9.47040498,12.9316081 9.18629283,13.6147874 8.64174455,14.2003697 C8.07352025,14.7859519 7.4105919,15.0787431 6.62928349,15.0787431 C5.82429907,15.0787431 5.16137072,14.7859519 4.59314642,14.2003697 C4.02492212,13.6147874 3.74080997,12.9316081 3.74080997,12.1264325 C3.74080997,11.3212569 4.02492212,10.6380776 4.59314642,10.0524954 C5.16137072,9.46691312 5.82429907,9.174122 6.62928349,9.174122 C7.12647975,9.174122 7.57632399,8.97892791 7.95514019,8.612939 C8.33395639,8.24695009 8.52336449,7.78336414 8.52336449,7.24658041 C8.52336449,6.70979667 8.33395639,6.27060998 7.9788162,5.88022181 C7.62367601,5.5142329 7.17383178,5.31903882 6.6529595,5.29463956 C4.78255452,5.31903882 3.21993769,5.97781885 1.96510903,7.29537893 C0.710280374,8.58853974 0.0473520249,10.1988909 0,12.1264325 C0.0473520249,14.0539741 0.710280374,15.6399261 1.96510903,16.9330869 C3.21993769,18.2262477 4.78255452,18.8850277 6.6529595,18.9338262 C7.69470405,18.909427 8.66542056,18.6898336 9.51775701,18.2750462 L9.51775701,19.568207 C9.51775701,20.3733826 9.23364486,21.0565619 8.68909657,21.6421442 C8.12087227,22.2277264 7.45794393,22.5205176 6.6529595,22.5205176 C6.15576324,22.5205176 5.705919,22.7157116 5.35077882,23.0817006 C4.97196262,23.4476895 4.78255452,23.9112754 4.78255452,24.4480591 C4.78255452,24.9848429 4.97196262,25.4240296 5.3271028,25.8144177 C5.705919,26.1804067 6.13208723,26.3756007 6.6529595,26.4 C8.52336449,26.3756007 10.0859813,25.7168207 11.34081,24.3992606 C12.5956386,23.1060998 13.258567,21.5445471 13.305919,19.7390018 L13.305919,6.80739372 C13.305919,6.00221811 13.5900312,5.31903882 14.1582555,4.73345656 C14.7264798,4.14787431 15.3894081,3.85508318 16.1707165,3.85508318 C16.9757009,3.85508318 17.6386293,4.14787431 18.2068536,4.73345656 C18.7750779,5.31903882 19.05919,6.00221811 19.05919,6.80739372 C19.05919,7.61256932 18.7750779,8.29574861 18.2068536,8.88133087 C17.6386293,9.46691312 16.9757009,9.75970425 16.1707165,9.75970425 C15.6735202,9.75970425 15.223676,9.95489834 14.8448598,10.3208872 C14.4660436,10.6868762 14.2766355,11.1504621 14.2766355,11.6872458 C14.2766355,12.2240296 14.4660436,12.6632163 14.8211838,13.0536044 C15.2,13.4195933 15.6261682,13.6391867 16.1470405,13.6391867 C18.0174455,13.6147874 19.5800623,12.9560074 20.834891,11.6384473 C22.0897196,10.3452865 22.752648,8.7349353 22.8,6.80739372 C22.752648,4.87985213 22.0897196,3.29390018 20.834891,2.00073937 C19.5563863,0.707578558 17.9937695,0.0487985213 16.0996885,0 Z" id="Path"></path>
                </g>
            </g>
        </g>
    </g>
</svg>