<?xml version="1.0" encoding="UTF-8"?>
<svg width="68px" height="46px" viewBox="0 0 68 46" version="1.1" xmlns="http://www.w3.org/2000/svg" xmlns:xlink="http://www.w3.org/1999/xlink">
    <!-- Generator: Sketch 55.2 (78181) - https://sketchapp.com -->
    <title>Group 4@1.5x</title>
    <desc>Created with Sketch.</desc>
    <defs>
        <polygon id="path-1" points="0 34 28.1134969 34 28.1134969 46 0 46"></polygon>
        <polygon id="path-3" points="30.2760736 34 67.0398773 34 67.0398773 46 30.2760736 46"></polygon>
    </defs>
    <g id="Viewer" stroke="none" stroke-width="1" fill="none" fill-rule="evenodd">
        <g id="Group-4">
            <path d="M25.9495346,6.45403209 C30.7020147,5.26543397 35.4544948,4.07701548 40.2071674,2.88841737 L38.6861967,5.22699359 C33.3598162,6.55911443 28.0334357,7.89123528 22.7070552,9.22335612 L24.6525813,16 L26.4853289,15.5414099 C26.0005351,13.8529072 25.5157413,12.1642248 25.03114,10.4757222 C29.9610635,9.24239669 34.9618104,8.01499893 39.9283003,6.77287169 L44.3328221,0 L25.4524237,4.72187981 L25.9495346,6.45403209 Z" id="Path" fill="#0284FF"></path>
            <path d="M42.1702454,10 L30.4835751,13.0227984 L30.0573453,11.487208 L28.2497133,11.9547209 C28.5606996,13.0739297 28.8339044,14.140541 29.1454603,15.2630486 C32.130208,14.4909466 35.1153354,13.7188447 38.1000831,12.946926 L36.5998302,15.3328731 C33.0263348,16.2572696 29.5041009,17.1917457 25.9509202,18.1108274 L27.8631637,25 L29.6711754,24.532487 C28.8589656,21.6062702 29.0556578,22.3144121 28.243448,19.3883785 C31.4374185,18.5622129 34.631389,17.7362306 37.8253595,16.910065 L42.1702454,10 Z" id="Path" fill="#0284FF"></path>
            <path d="M24.8208222,29 L18.3819018,6.41019456 C20.2831503,5.93117208 22.1533188,5.48317064 24.0714502,5 L24.5610553,6.71769957 L20.8057538,7.6634804 L26.2585575,26.7942602 C31.0939829,25.5700115 39.9891782,23.3152152 44.1103405,22.277273 L45.6263511,19.9290529 L31.4136075,23.5090966 C31.1045348,22.425164 30.8092753,21.3536759 30.5088358,20.2747932 L32.3429362,19.8129044 L32.7678873,21.3038979 L49.7392638,17.028947 L45.3485501,23.8292265 C38.5059742,25.5528778 31.6633982,27.2763487 24.8208222,29" id="Fill-3" fill="#9B9B9B" opacity="0.699999988"></path>
            <mask id="mask-2" fill="white">
                <use xlink:href="#path-1"></use>
            </mask>
            <g id="Clip-6" opacity="0.300000012"></g>
            <path d="M0,45.7978865 L0,34 L6.34169343,34 L6.34169343,35.5707308 L1.84730219,35.5707308 L1.84730219,39.094219 L6.34169343,39.094219 L6.34169343,40.6345795 L1.84730219,40.6345795 L1.84730219,45.7978865 L0,45.7978865 Z M21.5153522,45.7978865 L19.7645827,45.7978865 L19.7645827,36.8844685 L21.4457634,36.8844685 L21.4457634,37.8994761 C21.8111532,37.4986236 22.2124035,37.2052216 22.6531973,37.0199805 C23.0908897,36.8345618 23.5948756,36.7406092 24.1593398,36.7406092 C25.4332611,36.7406092 26.4109938,37.0837403 27.0933132,37.7694699 C27.7723372,38.455377 28.1134969,39.4398366 28.1134969,40.7203623 L28.1134969,45.7978865 L26.3538108,45.7978865 L26.3538108,41.0688216 C26.3538108,40.1230797 26.163653,39.4206554 25.780236,38.9640352 C25.3968191,38.5079478 24.8023095,38.2811473 23.9994212,38.2811473 C23.1271379,38.2811473 22.4961863,38.5493295 22.1038527,39.0858716 C21.7113252,39.6250777 21.5153522,40.5102566 21.5153522,41.7490454 L21.5153522,45.7978865 Z M9.4204658,41.2846106 C9.4204658,42.1861291 9.74650592,42.9411242 10.3983923,43.55226 C11.0473711,44.1635734 11.8444442,44.4678093 12.7890301,44.4678093 C13.6492952,44.4678093 14.4068248,44.1607317 15.0649141,43.549596 C15.719902,42.9356185 16.0488497,42.2193411 16.0488497,41.397922 C16.0488497,40.5241098 15.7230034,39.7744428 15.0740246,39.1494539 C14.4219444,38.527129 13.6492952,38.2147234 12.7527819,38.2147234 C11.8322322,38.2147234 11.0473711,38.5106118 10.3983923,39.1052304 C9.74650592,39.699849 9.4204658,40.4273155 9.4204658,41.2846106 L9.4204658,41.2846106 Z M15.9614275,45.7978865 L15.9614275,44.7027795 C15.5146246,45.1286742 15.0135463,45.4522689 14.4642017,45.670722 C13.9119494,45.8893526 13.3232551,46 12.6985064,46 C11.2375288,46 10.0240858,45.5517272 9.05526986,44.6585561 C8.08936149,43.7652074 7.60650422,42.6452358 7.60650422,41.3011278 C7.60650422,40.6732972 7.72707316,40.0786786 7.96859871,39.517272 C8.21012426,38.956043 8.55419157,38.4608827 9.00390207,38.034988 C9.49296224,37.5648699 10.0271873,37.2190747 10.6067711,36.9951159 C11.1892625,36.7711571 11.8502594,36.6576681 12.5928632,36.6576681 C13.2598692,36.6576681 13.8725998,36.7656514 14.4310549,36.9812628 C14.9924177,37.1970518 15.5026065,37.5261522 15.9614275,37.9630583 L15.9614275,36.8844685 L17.7300304,36.8844685 L17.7300304,45.7978865 L15.9614275,45.7978865 Z" id="Fill-5" fill="#0284FF" mask="url(#mask-2)"></path>
            <mask id="mask-4" fill="white">
                <use xlink:href="#path-3"></use>
            </mask>
            <g id="Clip-9"></g>
            <path d="M36.9051362,45.7655012 L30.2760736,45.7655012 L30.2760736,34 L36.9051362,34 L36.9051362,35.5665727 L32.1255842,35.5665727 L32.1255842,39.0803359 L36.9051362,39.0803359 L36.9051362,40.616445 L32.1255842,40.616445 L32.1255842,44.1410122 L36.9051362,44.1410122 L36.9051362,45.7655012 Z M65.1363594,40.4758166 C64.9209067,39.7420336 64.5466994,39.1740292 64.0141218,38.7741059 C63.4811599,38.371526 62.8469102,38.1701474 62.1044536,38.1701474 C61.3443149,38.1701474 60.6858484,38.3770165 60.1263633,38.7879208 C59.5697611,39.2014819 59.1836376,39.7641728 58.974143,40.4758166 L65.1363594,40.4758166 Z M58.9203279,41.9127419 C59.0669741,42.6546721 59.4321482,43.2586306 60.012775,43.7191268 C60.5932095,44.1798002 61.2847339,44.4086314 62.0867715,44.4086314 C62.658365,44.4086314 63.1790264,44.2816407 63.6518307,44.0278364 C64.1217521,43.776866 64.4959594,43.4185645 64.7773356,42.9550573 L66.7315935,42.9550573 C66.2885797,43.9396337 65.6662462,44.6953788 64.8699745,45.2166251 C64.0710121,45.7380485 63.1430856,46 62.0867715,46 C61.3714147,46 60.7219814,45.8841675 60.1294385,45.6523254 C59.5397784,45.4208375 59.0070087,45.0733399 58.5251711,44.6100099 C58.0761992,44.1743096 57.7229413,43.6667011 57.4686649,43.0875386 C57.2143884,42.508376 57.0886916,41.9180553 57.0886916,41.3140968 C57.0886916,40.6881762 57.2053551,40.103346 57.4357992,39.5601376 C57.6662432,39.016752 58.0073927,38.5204788 58.4565568,38.0734432 C58.9353192,37.5881511 59.4769301,37.2240048 60.0785063,36.9788792 C60.6800825,36.7332221 61.338549,36.6118991 62.0508307,36.6118991 C62.8976501,36.6118991 63.6848886,36.7939722 64.4150445,37.1579413 C65.1423175,37.5220876 65.7408186,38.029519 66.2166981,38.6802356 C66.4949991,39.0858265 66.7046859,39.5270173 66.8392238,40.0096527 C66.9739538,40.4924653 67.0398773,41.0439981 67.0398773,41.6615943 L67.0398773,41.9127419 L58.9203279,41.9127419 Z M49.9777914,42.8889938 L51.6089664,42.8889938 C51.6089664,43.3578144 51.7494623,43.7439228 52.0339137,44.0473189 C52.3181729,44.3533718 52.6712385,44.5051584 53.099261,44.5051584 C53.5032588,44.5051584 53.8355672,44.3891488 54.0958018,44.1603176 C54.3562286,43.9314864 54.4850005,43.6419052 54.4850005,43.2860833 C54.4850005,42.9718832 54.3921694,42.7097545 54.2095824,42.4945611 C54.0239202,42.276711 53.7277448,42.0946379 53.3177888,41.9430284 C53.1801759,41.8906026 52.9795223,41.8188715 52.7221707,41.7333255 C52.0398718,41.496347 51.6030083,41.3086063 51.4173461,41.1679778 C51.0731215,40.9141735 50.818845,40.6274261 50.6541323,40.3077355 C50.4896117,39.9875135 50.408889,39.6180538 50.408889,39.1961684 C50.408889,38.4763774 50.681232,37.8612608 51.2286087,37.3538294 C51.7732947,36.8490547 52.4438696,36.5954275 53.2309158,36.5954275 C54.056978,36.5954275 54.7094864,36.8185911 55.194207,37.2627928 C55.6820027,37.7068174 55.9453124,38.3300813 55.9931694,39.1325845 L54.3264381,39.1325845 C54.2962631,38.8043924 54.1795996,38.5479315 53.9760631,38.3660355 C53.7727188,38.1811285 53.4973007,38.0902691 53.1532683,38.0902691 C52.8419094,38.0902691 52.5845577,38.1894529 52.3781383,38.3851638 C52.1715266,38.5810518 52.0667793,38.8265317 52.0667793,39.1161129 C52.0667793,39.6125633 52.5336256,40.0179771 53.4675102,40.3351881 C53.7308199,40.4288814 53.9372394,40.5004354 54.0898437,40.555695 C54.8259577,40.8288046 55.3527694,41.1708116 55.6641283,41.5817159 C55.9783702,41.9899635 56.1340497,42.5360058 56.1340497,43.2200198 C56.1340497,44.0170325 55.8405651,44.6815639 55.2570553,45.2083007 C54.6733534,45.7350376 53.9343564,46 53.0483288,46 C52.1534601,46 51.4292623,45.7213998 50.8816934,45.1670332 C50.3308571,44.6126666 50.0316066,43.8542648 49.9777914,42.8889938 L49.9777914,42.8889938 Z M40.3887047,41.2645049 C40.3887047,42.1637123 40.712172,42.9166236 41.3585301,43.5260726 C42.0020053,44.1355217 42.7921267,44.4389178 43.7288943,44.4389178 C44.5816718,44.4389178 45.3329694,44.1326879 45.9852856,43.5232388 C46.6347189,42.9111331 46.960877,42.1968326 46.960877,41.3776807 C46.960877,40.5061031 46.6377941,39.7586823 45.9943189,39.1354184 C45.3479608,38.5148112 44.5816718,38.2032678 43.6927613,38.2032678 C42.7800183,38.2032678 42.0020053,38.4983396 41.3585301,39.0911399 C40.712172,39.6842944 40.3887047,40.409576 40.3887047,41.2645049 L40.3887047,41.2645049 Z M46.8741962,45.7655012 L46.8741962,44.6734167 C46.4311824,45.0979588 45.9343535,45.4208375 45.3898597,45.6386876 C44.8420986,45.8565377 44.2585889,45.9668797 43.6389461,45.9668797 C42.1905504,45.9668797 40.987398,45.5200213 40.0266058,44.6291382 C39.0690809,43.7384322 38.5901263,42.6215518 38.5901263,41.2811536 C38.5901263,40.6550559 38.7100571,40.0620784 38.9493422,39.5022213 C39.1886274,38.9423642 39.5297768,38.4485705 39.9758658,38.0240285 C40.4605863,37.5552079 40.9904731,37.2103671 41.5649496,36.9870264 C42.1426934,36.7636857 42.7978926,36.6505099 43.5341988,36.6505099 C44.1957405,36.6505099 44.8032748,36.7581952 45.356994,36.9730344 C45.913404,37.1882278 46.4192662,37.5165971 46.8741962,37.9522973 L46.8741962,36.8765073 L48.6279927,36.8765073 L48.6279927,45.7655012 L46.8741962,45.7655012 Z" id="Fill-8" fill="#9B9B9B" opacity="0.699999988" mask="url(#mask-4)"></path>
        </g>
    </g>
</svg>