<?xml version="1.0" encoding="UTF-8"?>
<svg width="145px" height="29px" viewBox="0 0 145 29" version="1.1" xmlns="http://www.w3.org/2000/svg" xmlns:xlink="http://www.w3.org/1999/xlink">
    <!-- Generator: sketchtool 58 (101010) - https://sketch.com -->
    <title>F6461C64-C74C-4CEE-B07B-D60D9A150F3C</title>
    <desc>Created with sketchtool.</desc>
    <defs>
        <polygon id="path-1" points="0 0.00184692951 13.9811198 0.00184692951 13.9811198 13.2454254 0 13.2454254"></polygon>
    </defs>
    <g id="Page-1" stroke="none" stroke-width="1" fill="none" fill-rule="evenodd">
        <g id="Viewers---Home-page_step3_2" transform="translate(-1296.000000, -238.000000)">
            <g id="Group-19" transform="translate(1253.000000, 201.000000)">
                <g id="Group-15">
                    <g id="Group-30" transform="translate(43.200000, 37.200000)">
                        <path d="M142.670176,6.42132565 C141.807981,6.42132565 141.108144,7.12205449 141.108144,7.98424981 C141.108144,8.84644513 141.807981,9.54762001 142.670176,9.54762001 C143.532371,9.54762001 144.2331,8.84644513 144.2331,7.98424981 C144.2331,7.12205449 143.532371,6.42132565 142.670176,6.42132565 M142.670176,9.25189549 C141.972123,9.25189549 141.402084,8.68230241 141.402084,7.98424981 C141.402084,7.28530513 141.972123,6.71571205 142.670176,6.71571205 C143.370013,6.71571205 143.938268,7.28530513 143.938268,7.98424981 C143.938268,8.68230241 143.370013,9.25189549 142.670176,9.25189549" id="Fill-1" fill="#111111"></path>
                        <path d="M142.39488,7.80516475 L142.486764,7.37429011 L142.906042,7.37429011 C143.103192,7.37429011 143.113451,7.50096547 143.096501,7.58615911 C143.062156,7.74450331 142.964473,7.80516475 142.790072,7.80516475 L142.39488,7.80516475 Z M141.874797,8.70661159 L142.203083,8.70661159 L142.337341,8.07591103 L142.684806,8.07591103 C142.934142,8.07591103 142.928344,8.16155071 142.882848,8.38144843 C142.847611,8.54782135 142.842704,8.62989271 142.848949,8.70661159 L143.221392,8.70661159 L143.229421,8.66379175 C143.165191,8.63658331 143.176342,8.57770603 143.226299,8.34308899 C143.29142,8.04245803 143.229421,7.99205551 143.109436,7.93540843 C143.280716,7.88143759 143.401592,7.72933795 143.439506,7.55226007 C143.468944,7.41309559 143.457793,7.09774531 143.030041,7.09774531 L142.216018,7.09774531 L141.874797,8.70661159 Z" id="Fill-3" fill="#111111"></path>
                        <path d="M38.5159108,19.7132284 C38.9597206,16.4892513 39.9802602,14.0873259 39.9802602,12.4030789 C39.9802602,9.77411912 37.7166072,8.76829892 34.9649864,8.76829892 C33.1669992,8.76829892 31.9024758,9.014513 30.7262683,9.38428016 L30.3270625,12.0743474 C31.6580458,11.4382944 32.6348734,11.2322239 34.0773668,11.2322239 C35.3864942,11.2322239 36.2076538,11.8486512 36.2076538,12.6082573 C36.2076538,12.7523282 36.2076538,12.8959531 36.1630498,13.039578 C35.6081761,12.9985423 34.8093184,12.9365427 34.0104608,12.9365427 C30.4818384,12.9365427 27.6414556,14.2305048 27.6414556,16.8590185 C27.6414556,18.9331045 29.017489,19.9598886 31.5028239,19.9598886 C33.0563812,19.9598886 34.5434786,19.4460505 35.3864942,18.214534 L35.3864942,18.1734984 L35.4306522,18.214534 L35.2531282,19.7132284 L38.5159108,19.7132284 Z M32.7677934,17.4955176 C31.9247778,17.4955176 31.414062,16.920572 31.414062,16.4276978 C31.414062,15.4829851 32.8123974,14.846486 34.7210025,14.9084856 C34.9649864,14.9084856 35.4529542,14.9084856 35.7857,14.969147 C35.4975582,16.407626 34.4765726,17.4955176 32.7677934,17.4955176 L32.7677934,17.4955176 Z" id="Fill-5" fill="#111111"></path>
                        <path d="M49.5192716,9.01437919 L45.5909973,15.7705471 L45.5468394,15.7705471 L44.5039978,9.01437919 L40.4428036,9.01437919 L42.9950445,19.672059 C42.5289327,20.7608426 41.796535,21.4383774 40.6644855,21.4383774 C39.9102319,21.4383774 39.3549121,21.2742346 38.8450884,21.1306098 L38.0016267,23.820677 C38.7563264,24.0459272 39.710406,24.2725155 41.1305973,24.2725155 C43.6828382,24.2725155 44.9924116,23.0191431 46.1686191,21.1306098 L53.7579897,9.01437919 L49.5192716,9.01437919 Z" id="Fill-7" fill="#111111"></path>
                        <polygon id="Fill-9" fill="#111111" points="55.5963436 4.31177947 52.1341811 19.7135407 56.1730733 19.7135407 59.6352358 4.31177947"></polygon>
                        <path d="M65.9120891,8.76847734 C61.3847831,8.76847734 58.4556384,11.3149197 58.4556384,15.0719146 C58.4556384,17.7628739 60.1867196,19.9596209 64.4695957,19.9596209 C68.7970758,19.9596209 71.9256003,18.008642 71.9256003,13.5531484 C71.9256003,10.8630812 69.8399173,8.76847734 65.9120891,8.76847734 M64.7581836,17.3725889 C63.4040061,17.3931068 62.5832925,16.4274302 62.5832925,14.9902893 C62.5832925,13.2859705 63.781802,11.3555093 65.7122631,11.3555093 C67.2658205,11.3555093 67.7979462,12.4028113 67.7979462,13.5116667 C67.7979462,15.935002 66.6221847,17.3725889 64.7581836,17.3725889" id="Fill-11" fill="#111111"></path>
                        <path d="M80.8893094,8.76825432 C79.2465441,8.76825432 77.9601647,9.95918112 77.316083,11.2116614 L77.271925,11.2116614 L77.7161808,9.0144684 L74.0082503,9.0144684 C73.8976324,9.97969896 73.7201085,10.88293 73.5202826,11.8071248 L71.7227414,19.7131838 L75.7170296,19.7131838 L76.8499712,14.7848879 C77.1390051,13.2036761 78.1376886,11.8481605 79.8237198,11.8481605 C80.5784195,11.8481605 81.1555953,11.9306779 81.665419,12.3004451 L82.5757866,9.03498624 C82.0432149,8.82980784 81.4218812,8.76825432 80.8893094,8.76825432" id="Fill-13" fill="#111111"></path>
                        <polygon id="Fill-15" fill="#111111" points="96.686262 5.37982225 91.8262102 15.0107179 91.7820522 15.0107179 91.5385144 5.37982225 85.0584453 5.37982225 81.6841527 19.7137637 85.457205 19.7137637 88.1428119 7.96730029 88.1865238 7.96730029 88.7636996 19.7137637 92.6696718 19.7137637 98.7500891 7.96730029 98.7946931 7.96730029 95.9766124 19.7137637 100.015059 19.7137637 103.299697 5.37982225"></polygon>
                        <path d="M109.198888,8.76825432 C107.401347,8.76825432 106.136824,9.0144684 104.960616,9.38423556 L104.56141,12.0743028 C105.893286,11.4382498 106.868775,11.2321793 108.312161,11.2321793 C109.620842,11.2321793 110.442002,11.8486066 110.442002,12.6082127 C110.442002,12.7522836 110.442002,12.8959085 110.397844,13.0395334 C109.842078,12.9984977 109.044112,12.9364981 108.245255,12.9364981 C104.716186,12.9364981 101.87625,14.2309062 101.87625,16.8589739 C101.87625,18.9330599 103.251837,19.959844 105.737618,19.959844 C107.290729,19.959844 108.777827,19.4460059 109.620842,18.2144894 L109.620842,18.1734538 L109.665446,18.2144894 L109.487476,19.7131838 L112.750259,19.7131838 C113.194069,16.4896528 114.214162,14.0872813 114.214162,12.4030343 C114.214162,9.77407452 111.950955,8.76825432 109.198888,8.76825432 M107.002141,17.495473 C106.159126,17.495473 105.64841,16.9205274 105.64841,16.4276532 C105.64841,15.4829405 107.046745,14.8464414 108.955351,14.908441 C109.198888,14.908441 109.687748,14.908441 110.020048,14.9691024 C109.73146,16.4075814 108.710921,17.495473 107.002141,17.495473" id="Fill-17" fill="#111111"></path>
                        <path d="M126.350108,4.31155645 L124.952218,10.7394389 L124.90806,10.7394389 C124.308583,9.58954777 122.911139,8.76838813 120.89147,8.76838813 C116.940894,8.76838813 115.032289,12.0334009 115.032289,15.5450739 C115.032289,17.9469993 116.852132,19.9599778 119.337021,19.9599778 C121.556962,19.9599778 122.511487,19.1999256 123.532473,18.0085528 L123.576631,18.0085528 L123.265741,19.7133177 L126.927283,19.7133177 C126.971887,19.282443 127.038347,18.7485331 127.171713,18.1120341 L130.278382,4.31155645 L126.350108,4.31155645 Z M121.068102,17.1258396 C119.803133,17.1258396 119.160389,16.2431265 119.160389,14.9286466 C119.160389,13.2653634 120.292438,11.6020803 122.178296,11.6020803 C123.510171,11.6020803 124.086901,12.7109357 124.086901,13.7787555 C124.086901,15.1958245 122.955743,17.1258396 121.068102,17.1258396 L121.068102,17.1258396 Z" id="Fill-19" fill="#111111"></path>
                        <path d="M141.326391,13.4296845 C141.326391,10.1851896 139.040882,8.76812051 136.000674,8.76812051 C130.852034,8.76812051 129.076795,12.5880071 129.076795,15.0724499 C129.076795,17.7625171 131.162924,19.9597101 135.023846,19.9597101 C136.178198,19.9597101 137.664849,19.7545317 139.063184,19.3642467 L139.573008,16.7562509 C138.463707,17.2495711 137.021659,17.4953391 135.95607,17.4953391 C133.514893,17.4953391 132.894005,16.5916621 132.849401,15.441771 L141.038249,15.441771 C141.193471,14.8057179 141.326391,13.8610052 141.326391,13.4296845 L141.326391,13.4296845 Z M133.092939,13.3476132 C133.381527,12.3208291 134.314196,11.2320455 136.044832,11.2320455 C137.509181,11.2320455 137.998041,12.1977221 137.998041,13.3476132 L133.092939,13.3476132 Z" id="Fill-21" fill="#111111"></path>
                        <path d="M27.7356147,2.8880644 C17.034223,-2.57637164 6.49028344,0.390240396 1.54949836,6.15798364 C12.7736489,3.81092116 21.9892814,4.67177836 28.8368874,5.7784036 C28.8636498,5.58526828 28.88729,5.39882356 28.9078078,5.22174568 C28.9127142,5.17669564 28.9162826,5.13075352 28.9185128,5.08525744 L28.9256494,4.94921524 C28.9698074,4.08746596 28.5036956,3.2805796 27.7356147,2.8880644" id="Fill-23" fill="#111111"></path>
                        <path d="M25.0386784,11.0361447 C22.2727844,11.2698697 21.2254825,13.1557268 19.7134069,15.5679111 C18.5380915,17.4412791 14.7066079,24.1697925 13.0540297,27.0802035 C14.9880591,28.0075207 16.8096865,28.0440959 18.7771689,27.4214241 C20.1291161,26.9936717 20.8030826,26.6595878 21.5711635,26.0989155 C21.8271904,25.9115787 22.0684981,25.7081845 22.2371012,25.4673229 L22.2982087,25.3821292 C22.3209567,25.3513525 22.3428127,25.3187915 22.3633305,25.2866767 C24.8486654,21.4114811 26.6279189,15.4876239 27.4673662,12.3015602 C27.5677252,11.9193039 27.6645159,11.5383857 27.7572922,11.1614819 C26.7416591,10.9973392 25.903996,10.9629941 25.0386784,11.0361447" id="Fill-25" fill="#111111"></path>
                        <g id="Group-29" transform="translate(0.000000, 10.891316)">
                            <mask id="mask-2" fill="white">
                                <use xlink:href="#path-1"></use>
                            </mask>
                            <g id="Clip-28"></g>
                            <path d="M10.3975492,0.089921664 C5.64142471,0.718392024 1.96159471,1.93340498 -8.9208e-05,2.69211902 C0.090010872,3.10693622 0.173866392,3.36831566 0.188139672,3.41024342 C0.189031752,3.4133657 0.214902072,3.49097666 0.214902072,3.49097666 C0.221146632,3.50971034 0.205535232,3.4601999 0.205535232,3.4601999 C1.00796119,6.1988855 3.68286307,9.36621554 8.15352199,12.8667375 C8.32078699,12.9974272 8.48403763,13.1227644 8.64416599,13.2454254 C11.2655431,9.34926602 12.7017919,6.3906827 13.7076121,3.26929478 C14.6019223,0.494479944 13.2526513,-0.285197976 10.3975492,0.089921664" id="Fill-27" fill="#111111" mask="url(#mask-2)"></path>
                        </g>
                    </g>
                </g>
            </g>
        </g>
    </g>
</svg>